PathFileType	4	(X/Y/Z)	/Users/niels/Desktop/University/Third Semester/Perception and Action/Exam/Gymnastics Motion Tracking/Code for Gym Tracking/Analyzed Data/Webcam_Backflip/id7_2_baseline_Sports2D/id7_2_baseline_Sports2D_px_person00.trc
DataRate	CameraRate	NumFrames	NumMarkers	Units	OrigDataRate	OrigDataStartFrame	OrigNumFrames
29.808917197452228	29.808917197452228	12	22	m	29.808917197452228	39	157
Frame#	Time	Hip			RHip			RKnee			RAnkle			RBigToe			RSmallToe			RHeel			LHip			LKnee			LAnkle			LBigToe			LSmallToe			LHeel			Neck			Head			Nose			RShoulder			RElbow			RWrist			LShoulder			LElbow			LWrist		
		X1	Y1	Z1	X2	Y2	Z2	X3	Y3	Z3	X4	Y4	Z4	X5	Y5	Z5	X6	Y6	Z6	X7	Y7	Z7	X8	Y8	Z8	X9	Y9	Z9	X10	Y10	Z10	X11	Y11	Z11	X12	Y12	Z12	X13	Y13	Z13	X14	Y14	Z14	X15	Y15	Z15	X16	Y16	Z16	X17	Y17	Z17	X18	Y18	Z18	X19	Y19	Z19	X20	Y20	Z20	X21	Y21	Z21	X22	Y22	Z22
39	1.3083333333333333	0.9428742862274331	-0.5104407783308054	0.0	0.9476384138708992	-0.5100871649030896	0.0	1.0355937193469011	-0.5040347585545495	0.0	1.0248523822256017	-0.614867727958343	0.0	1.0473487907547456	-0.6356147169155452	0.0	1.04527082229873	-0.6397889346834248	0.0	1.013793309193031	-0.6305254768128012	0.0	0.932345658653796	-0.5116347182526477	0.0	1.0178101577359506	-0.5098118782295138	0.0	1.0070250944426837	-0.6111755166097166	0.0	1.0348509574314644	-0.6318859748102664	0.0	1.0245353234284855	-0.6345394004458939	0.0	0.9958395769943387	-0.6262621832932227	0.0	0.8662245684752438	-0.3892006706138583	0.0	0.8178479755538982	-0.32942139543181087	0.0	0.8642008710732714	-0.3391493288008199	0.0	0.8875643776020887	-0.38556575223119605	0.0	0.95236101702246	-0.35258621925662736	0.0	0.9837442508052288	-0.29496499995721565	0.0	0.8511039649090413	-0.4034320832198539	0.0	0.9147910512806583	-0.38287311972092075	0.0	0.9485312331246032	-0.34157140216778736	0.0
40	1.3418803418803418	0.9461359883568727	-0.4877248748087225	0.0	0.9519355012408799	-0.4871884278629006	0.0	1.0315473537444562	-0.44377799291040776	0.0	1.042866421138892	-0.5457223855707243	0.0	1.0676703188912695	-0.5563199683880273	0.0	1.0678061933749616	-0.5617435287840103	0.0	1.0352689760838711	-0.5619715605677102	0.0	0.9353274513032447	-0.4897206102847443	0.0	1.0123632901704969	-0.4533293332474857	0.0	1.0212258096844924	-0.5463202300889578	0.0	1.050606006836044	-0.5587989972088873	0.0	1.0414094885805345	-0.5624640181534275	0.0	1.0151277553131197	-0.5628676898948923	0.0	0.8569421083198544	-0.37840659100152874	0.0	0.8040734516977787	-0.3252558440749015	0.0	0.8509710479568585	-0.3298976561386937	0.0	0.8815045317291863	-0.37167828944210585	0.0	0.948663113138505	-0.3406176469920782	0.0	0.9858766738223971	-0.28779748933026994	0.0	0.8427541767934065	-0.39538430133727775	0.0	0.9079384510631631	-0.3752498142315395	0.0	0.9475894795886152	-0.3355592986550462	0.0
41	1.3754273504273504	0.9530075605932485	-0.4657047765024609	0.0	0.9595300232810531	-0.464635748506876	0.0	1.018259070687989	-0.39020324209980173	0.0	1.0549313626664716	-0.4759324600336769	0.0	1.0803901492275314	-0.47270532997761344	0.0	1.0830562390302454	-0.47930695597487655	0.0	1.0523010603333243	-0.49254744343759427	0.0	0.9421876331648324	-0.46816770237434047	0.0	0.9986434073753753	-0.40378302652925374	0.0	1.0304231731925741	-0.48156746277698703	0.0	1.0593703056963435	-0.482176606768487	0.0	1.0515401841305834	-0.4863856216331413	0.0	1.0316016829477221	-0.49881281809743494	0.0	0.850300842490515	-0.37454043118636443	0.0	0.7930906807813558	-0.33117979986919693	0.0	0.8391665574206513	-0.3293827315925618	0.0	0.8769856807167093	-0.3644912323348894	0.0	0.945718129579084	-0.3334257124338703	0.0	0.9861225627994085	-0.28494847149478575	0.0	0.8399583284658401	-0.3929545277205011	0.0	0.9051948947541152	-0.37007874970514376	0.0	0.9485017307577408	-0.3288101197717287	0.0
42	1.4089743589743589	0.9625634146339117	-0.4431303648118386	0.0	0.9692349505613697	-0.44113365867139426	0.0	0.9977824518905529	-0.346531672524782	0.0	1.0581777198001725	-0.40857307268437343	0.0	1.0805522947485333	-0.3910007357703971	0.0	1.0859784032444366	-0.3982791382236568	0.0	1.0609810362001033	-0.4251852093305547	0.0	0.9518379274562941	-0.44569800919230074	0.0	0.9787742123001119	-0.36421916515185215	0.0	1.0319263079724619	-0.4191770456515735	0.0	1.0573703280561626	-0.4064655214285226	0.0	1.0502405901687693	-0.41072434877001135	0.0	1.0418974337034146	-0.43556877086675805	0.0	0.8471008796650611	-0.37743829848547245	0.0	0.7863080034252864	-0.34724348142898426	0.0	0.8295231335236561	-0.3378420981843595	0.0	0.8743574846634243	-0.36395483051333194	0.0	0.9425436336976525	-0.33003369631133816	0.0	0.9817393354828503	-0.2841818382473058	0.0	0.8427600812515473	-0.3953716142703594	0.0	0.9044553727409618	-0.36721065824180793	0.0	0.9466818809514027	-0.3228140532164173	0.0
43	1.4425213675213675	0.9728845645351524	-0.4194529688861383	0.0	0.9790827389580489	-0.4162653238987453	0.0	0.9727490351971733	-0.31416398359063913	0.0	1.05074695940473	-0.34673922249581174	0.0	1.0653646002180022	-0.31779639522831005	0.0	1.0734574774803396	-0.32501205664662586	0.0	1.0582786341650587	-0.3630563379713573	0.0	0.962231881344942	-0.4218844158244248	0.0	0.9554641062918156	-0.3358507244044713	0.0	1.0243483005235967	-0.3617683385604916	0.0	1.0428370665406204	-0.33679122556658375	0.0	1.0351763315216203	-0.34079128086856575	0.0	1.042924862495356	-0.3754155835145709	0.0	0.8482181574299913	-0.38626835716874564	0.0	0.7857227453330959	-0.37228632809270845	0.0	0.8235252593508879	-0.3546738358620611	0.0	0.8744318861012513	-0.36942346304963375	0.0	0.9386919773203909	-0.32945511544309175	0.0	0.971501083899645	-0.2840834997102882	0.0	0.8504598459234429	-0.4016536123972355	0.0	0.9046186839770758	-0.3663430915713401	0.0	0.939943675280498	-0.3204275320116766	0.0
44	1.476068376068376	0.9816976001372897	-0.39513417181665367	0.0	0.9868797862372196	-0.39081290469250657	0.0	0.9457550306776306	-0.293257217929688	0.0	1.0319258788764882	-0.29371080964910695	0.0	1.0347987802862755	-0.259039259072495	0.0	1.0450313576915304	-0.2654124521276089	0.0	1.0426433907648698	-0.30960999548321405	0.0	0.9710951252543136	-0.3973856508928024	0.0	0.9313486586344136	-0.3184781869693462	0.0	1.0081045285772485	-0.312485282212579	0.0	1.0165361028180526	-0.2784596987935909	0.0	1.0074005389551477	-0.2820646067316624	0.0	1.0325842451733858	-0.32167927706707183	0.0	0.8545781240649423	-0.39960513175955076	0.0	0.7933876626375036	-0.4039440642517565	0.0	0.8232096878509026	-0.37835385288293	0.0	0.878307215322055	-0.37970717201522003	0.0	0.9342622184651627	-0.33106920778492144	0.0	0.9558583350847515	-0.28465988380039037	0.0	0.8623116406688865	-0.4106466508836659	0.0	0.9058086170778417	-0.36661443198098903	0.0	0.9295367716224598	-0.32408197537219346	0.0
45	1.5096153846153846	0.9870981775567267	-0.3714833585425612	0.0	0.9908673465003958	-0.36643815166240135	0.0	0.9193983485638041	-0.28383204280626645	0.0	1.0024010891569186	-0.2530305011158086	0.0	0.9914835143107724	-0.21916059556653097	0.0	1.0029880333735004	-0.22395293570731983	0.0	1.0142912234806758	-0.26787715506016957	0.0	0.9767568981513124	-0.37382653763075446	0.0	0.9089858857413068	-0.3112548227412045	0.0	0.9843982647319423	-0.27427072413175535	0.0	0.9807508875959394	-0.23601656642903499	0.0	0.9702005072481334	-0.239029921605043	0.0	1.0101700038501813	-0.27759812093374925	0.0	0.8668653616667379	-0.4154560554619557	0.0	0.810574540713687	-0.43873627214193517	0.0	0.830449724827704	-0.4064184775393529	0.0	0.8868545553192638	-0.39306488692508307	0.0	0.9297042781742171	-0.3349126373699853	0.0	0.9368233378857977	-0.2875173617865125	0.0	0.8779450482899883	-0.42109124475139137	0.0	0.9089405962512653	-0.36739702754443493	0.0	0.9189503383152541	-0.33539059096651674	0.0
46	1.543162393162393	0.9880668027667596	-0.35027553805007067	0.0	0.9902229139522504	-0.3450614305591397	0.0	0.8961544525821161	-0.2862199546233769	0.0	0.9644486809692715	-0.22812652653938578	0.0	0.9399878393289719	-0.20043982897933016	0.0	0.9517301427888021	-0.2029515293169811	0.0	0.9753266640579588	-0.23979004518313213	0.0	0.9785331408707635	-0.3532582804390178	0.0	0.8904962174729153	-0.3130455946983333	0.0	0.9539275958798574	-0.2492141522786094	0.0	0.9377714753329117	-0.21233821376571446	0.0	0.9270762986100933	-0.21443346282035436	0.0	0.976503960482453	-0.245526793605458	0.0	0.885035932086941	-0.431452770847592	0.0	0.8370494801513034	-0.4723509833233517	0.0	0.8461919579646645	-0.4356158966770534	0.0	0.900248940756443	-0.407392781162159	0.0	0.9257581623678325	-0.3414274998223539	0.0	0.9174107144572553	-0.29513681412818643	0.0	0.8971732681164516	-0.4317330934906401	0.0	0.915070429185154	-0.3693884942731611	0.0	0.9118752485779179	-0.3553142742501589	0.0
47	1.5767094017094017	0.9845933322697122	-0.33322931345213996	0.0	0.9851679474502641	-0.32835783326302004	0.0	0.8778422222696458	-0.29978071162095565	0.0	0.9214035065985756	-0.22108293776047253	0.0	0.8859263100088369	-0.2032198340834509	0.0	0.896800638271009	-0.20286463531955606	0.0	0.9293475217577696	-0.22659757581349163	0.0	0.9765992225044361	-0.33733573429151253	0.0	0.8768511809651366	-0.32247842723811154	0.0	0.9175518278369328	-0.23879500735985187	0.0	0.890309000992517	-0.20869730565359454	0.0	0.8814833297971996	-0.20961538802364602	0.0	0.9341537993784691	-0.22767884057145246	0.0	0.9080232193684049	-0.44527772153003936	0.0	0.8708238301544208	-0.500344534473417	0.0	0.8700078843004305	-0.4622865565087963	0.0	0.9178418742831855	-0.42066944716760407	0.0	0.9233885307716274	-0.35079454926196996	0.0	0.9007116731790497	-0.3093920843584947	0.0	0.9194948125499137	-0.4412853968976891	0.0	0.9244948294615303	-0.374113909178069	0.0	0.910711205188967	-0.38356821044196626	0.0
48	1.6102564102564103	0.9774426958258225	-0.3216071286617457	0.0	0.9766433281040175	-0.3175253354860542	0.0	0.8651597568140309	-0.3218124999542661	0.0	0.8769375773638505	-0.23187012437170282	0.0	0.8351234453398455	-0.2266143879742275	0.0	0.843978314619192	-0.22313614519226868	0.0	0.880664277076965	-0.22964187411886744	0.0	0.9716384974412099	-0.326901587477562	0.0	0.8678031699389068	-0.33802002034556405	0.0	0.8778264050772768	-0.24429852079527883	0.0	0.8426417870908064	-0.2255424877364968	0.0	0.8375129874405292	-0.2252696830689485	0.0	0.8874426339083504	-0.22668544723918238	0.0	0.9338757966744333	-0.4552198562812385	0.0	0.9087776567592607	-0.519482243835935	0.0	0.9000643133155098	-0.48321645440654615	0.0	0.93832594949401	-0.4314358625479075	0.0	0.9234227775229698	-0.36264589205425646	0.0	0.8891512685540748	-0.3305704480396062	0.0	0.9436784099874599	-0.4484497849221849	0.0	0.9359357329609979	-0.382309877627651	0.0	0.9153798064611982	-0.41706141170122385	0.0
49	1.6438034188034187	0.9677061982857181	-0.31625727548612714	0.0	0.9657731581033904	-0.31329448524270337	0.0	0.8576670282274285	-0.3486864931434079	0.0	0.834945652888797	-0.2591614693838381	0.0	0.7928018596480904	-0.2686315762675142	0.0	0.7985850299820855	-0.2622604550911436	0.0	0.8338444737692009	-0.2500776543845032	0.0	0.9643913721658016	-0.32237138533555404	0.0	0.8624500818747813	-0.35811310683387804	0.0	0.839108316652905	-0.266510670982729	0.0	0.8004659487896812	-0.2623839239269007	0.0	0.7997579012737894	-0.26112830395530395	0.0	0.841843936981743	-0.24460199097983076	0.0	0.9601678088909466	-0.46066288078595713	0.0	0.9477902479438702	-0.52895955941669	0.0	0.9334047243945196	-0.4967171370488258	0.0	0.9599569197683951	-0.43901676881079804	0.0	0.9262423430269122	-0.3764683959305774	0.0	0.8841051467617049	-0.3577124465074446	0.0	0.9677342788241025	-0.4523483037492915	0.0	0.946841960162972	-0.39351242876045806	0.0	0.9230955475811624	-0.44923688538046724	0.0
50	1.6773504273504274	0.9564265834796774	-0.31778371084538465	0.0	0.9535242421887644	-0.3159863449508478	0.0	0.8541879077956026	-0.3775097764224658	0.0	0.7995789260692028	-0.30109873966967254	0.0	0.7630698132312251	-0.325753813850829	0.0	0.7651570343278398	-0.3171731392079355	0.0	0.7936121401056406	-0.2878409107231563	0.0	0.9554111237225305	-0.3241871337652324	0.0	0.8597373220825201	-0.3814813327388962	0.0	0.8063141384901096	-0.3048257335895323	0.0	0.7695772486536063	-0.31656491527475605	0.0	0.7725631244034437	-0.31459678941849495	0.0	0.8028809492404754	-0.28150294110635626	0.0	0.9844073743573413	-0.4622066243901217	0.0	0.985184614091061	-0.5301903683607764	0.0	0.9664189691413493	-0.502970007548068	0.0	0.9806974001908174	-0.44348699911838796	0.0	0.9318810551511038	-0.39207994670642343	0.0	0.8860430763785393	-0.3894668279107977	0.0	0.989429713191174	-0.45301918299611427	0.0	0.9554671824682228	-0.40665649837772533	0.0	0.93149860211573	-0.4733181257918514	0.0
